<?xml version="1.0" encoding="UTF-8" standalone="no"?>
<!-- Created with Inkscape (http://www.inkscape.org/) -->

<svg
   xmlns:dc="http://purl.org/dc/elements/1.1/"
   xmlns:cc="http://creativecommons.org/ns#"
   xmlns:rdf="http://www.w3.org/1999/02/22-rdf-syntax-ns#"
   xmlns:svg="http://www.w3.org/2000/svg"
   xmlns="http://www.w3.org/2000/svg"
   xmlns:sodipodi="http://sodipodi.sourceforge.net/DTD/sodipodi-0.dtd"
   xmlns:inkscape="http://www.inkscape.org/namespaces/inkscape"
   width="50.74195861816406mm"
   height="22.57075500488281mm"
   viewBox="0 0 50.74195861816406 22.57075500488281"
   version="1.1"
   id="svg835"
   inkscape:version="0.92.5 (2060ec1f9f, 2020-04-08)"
   sodipodi:docname="perdiste.svg">
  <defs
     id="defs829" />
  <sodipodi:namedview
     id="base"
     pagecolor="#ffffff"
     bordercolor="#666666"
     borderopacity="1.0"
     inkscape:pageopacity="0.0"
     inkscape:pageshadow="2"
     inkscape:zoom="1.624135887609375"
     inkscape:cx="148.4955465845457"
     inkscape:cy="112.5653689919178"
     inkscape:document-units="mm"
     inkscape:current-layer="layer1"
     showgrid="false"
     inkscape:window-width="1920"
     inkscape:window-height="1013"
     inkscape:window-x="-9"
     inkscape:window-y="-9"
     inkscape:window-maximized="1" />
  <metadata
     id="metadata832">
    <rdf:RDF>
      <cc:Work
         rdf:about="">
        <dc:format>image/svg+xml</dc:format>
        <dc:type
           rdf:resource="http://purl.org/dc/dcmitype/StillImage" />
        <dc:title></dc:title>
      </cc:Work>
    </rdf:RDF>
  </metadata>
  <g
     inkscape:label="Layer 1"
     inkscape:groupmode="layer"
     id="layer1"
     transform="translate(-49.39942786661783,-151.4849298858642)">
    <path
       inkscape:connector-curvature="0"
       id="path1386"
       style="font-style:normal;font-variant:normal;font-weight:normal;font-stretch:normal;font-size:40px;line-height:1.25;font-family:'Lexend Deca';-inkscape-font-specification:'Lexend Deca';text-align:center;letter-spacing:0px;word-spacing:0px;text-anchor:middle;fill:#ff4343;fill-opacity:1;stroke:none"
       d="m 198.1064990234375,572.9414672851562 q 2.24,0 4.12,1.16 1.88,1.12 3,3.0799999999999 1.12,1.9200000000001 1.12,4.3599999999999 0,2.4000000000002 -1.12,4.4000000000002 -1.12,1.9599999999997 -3,3.12 -1.88,1.16 -4.12,1.16 h -7.08 v 10.72 h -4.32 v -28 z m -0.08,13.12 q 1.08,0 1.96,-0.6 0.88,-0.64 1.4,-1.64 0.56,-1.0400000000002 0.56,-2.2800000000002 0,-1.88 -1.16,-3.1599999999997 -1.16,-1.2800000000001 -2.76,-1.2800000000001 h -7 v 8.96 z"
       transform="scale(0.2645833333333333)" />
    <path
       inkscape:connector-curvature="0"
       id="path1388"
       style="font-style:normal;font-variant:normal;font-weight:normal;font-stretch:normal;font-size:40px;line-height:1.25;font-family:'Lexend Deca';-inkscape-font-specification:'Lexend Deca';text-align:center;letter-spacing:0px;word-spacing:0px;text-anchor:middle;fill:#ff9e43;fill-opacity:1;stroke:none"
       d="m 212.0971240234375,572.9414672851562 h 17.64 v 4.16 h -13.32 v 7.3999999999996 h 11.12 v 4.1600000000002 h -11.12 v 8.12 h 13.32 v 4.1600000000002 h -17.64 z"
       transform="scale(0.2645833333333333)" />
    <path
       inkscape:connector-curvature="0"
       id="path1390"
       style="font-style:normal;font-variant:normal;font-weight:normal;font-stretch:normal;font-size:40px;line-height:1.25;font-family:'Lexend Deca';-inkscape-font-specification:'Lexend Deca';text-align:center;letter-spacing:0px;word-spacing:0px;text-anchor:middle;fill:#fbff43;fill-opacity:1;stroke:none"
       d="m 257.3883740234375,581.8614672851562 q 0,2.5200000000001 -1.52,4.6799999999998 -1.48,2.1600000000002 -3.88,3.2000000000002 l 6.52,11.24 -5.24,-0.04 -5.92,-10.5200000000001 h -6.4 v 10.5200000000001 h -4.32 v -28 h 11.92 q 2.2,0 4.2,1.0799999999997 2.04,1.0800000000003 3.32,3.0800000000003 1.32,2 1.32,4.76 z m -9.56,-4.76 h -6.88 v 9.1600000000001 h 8 q 1.92,0 2.96,-1.3600000000004 1.08,-1.3599999999999 1.08,-3.0799999999997 0,-2.2000000000005 -1.52,-3.4399999999999 -1.52,-1.2800000000001 -3.64,-1.2800000000001 z"
       transform="scale(0.2645833333333333)" />
    <path
       inkscape:connector-curvature="0"
       id="path1392"
       style="font-style:normal;font-variant:normal;font-weight:normal;font-stretch:normal;font-size:40px;line-height:1.25;font-family:'Lexend Deca';-inkscape-font-specification:'Lexend Deca';text-align:center;letter-spacing:0px;word-spacing:0px;text-anchor:middle;fill:#b9ff43;fill-opacity:1;stroke:none"
       d="m 275.4008740234375,572.9414672851562 q 3.24,0 5.68,1.12 2.48,1.0799999999997 4.12,3.04 1.64,1.9199999999997 2.48,4.48 0.84,2.52 0.84,5.36 0,3.8399999999998 -1.48,7.04 -1.48,3.1599999999997 -4.4,5.08 -2.92,1.88 -7.24,1.88 h -10.96 v -28 z m -0.2,23.8399999999998 q 3.16,0 5.12,-1.3199999999998 1.96,-1.36 2.88,-3.6 0.92,-2.2400000000005 0.92,-4.92 0,-2.6400000000001 -0.92,-4.88 -0.92,-2.24 -2.88,-3.6 -1.96,-1.36 -5.12,-1.36 h -6.44 v 19.6799999999998 z"
       transform="scale(0.2645833333333333)" />
    <path
       inkscape:connector-curvature="0"
       id="path1394"
       style="font-style:normal;font-variant:normal;font-weight:normal;font-stretch:normal;font-size:40px;line-height:1.25;font-family:'Lexend Deca';-inkscape-font-specification:'Lexend Deca';text-align:center;letter-spacing:0px;word-spacing:0px;text-anchor:middle;fill:#43ffb1;fill-opacity:1;stroke:none"
       d="m 306.0577490234375,600.9414672851562 h -13.36 v -4 h 4.52 v -20 h -4.52 v -4 h 13.36 v 4 h -4.52 v 20 h 4.52 z"
       transform="scale(0.2645833333333333)" />
    <path
       inkscape:connector-curvature="0"
       id="path1396"
       style="font-style:normal;font-variant:normal;font-weight:normal;font-stretch:normal;font-size:40px;line-height:1.25;font-family:'Lexend Deca';-inkscape-font-specification:'Lexend Deca';text-align:center;letter-spacing:0px;word-spacing:0px;text-anchor:middle;fill:#43e3ff;fill-opacity:1;stroke:none"
       d="m 313.9183740234375,592.5014672851558 q 1.64,2.3599999999999 3.4,3.6800000000002 1.8,1.2800000000001 4.64,1.2800000000001 1.36,0 2.6,-0.4400000000002 1.24,-0.4399999999998 2.04,-1.2800000000002 0.8,-0.8399999999998 0.8,-2 0,-2 -1.72,-3.12 -1.68,-1.1199999999999 -4.76,-1.7199999999998 -3.92,-0.7999999999998 -6.24,-2.76 -2.3200000000001,-2 -2.3200000000001,-5.7600000000001 0,-2.4000000000002 1.32,-4.1599999999997 1.36,-1.76 3.5599999999999,-2.7200000000003 2.1999999999998,-0.9599999999998 4.7599999999998,-0.9599999999998 3.32,0 5.7200000000001,1.2800000000001 2.3999999999999,1.28 3.7599999999998,3.64 l -3.04,3 q -1.08,-1.8000000000001 -2.7200000000001,-2.9200000000001 -1.6399999999998,-1.12 -3.8399999999999,-1.12 -2.2,0 -3.7200000000001,1.0400000000001 -1.48,1 -1.48,2.7999999999997 0,2.0400000000002 1.5599999999999,3 1.6,0.9200000000002 4.2,1.4799999999999 2.36,0.4800000000004 4.48,1.4800000000004 2.1199999999999,1 3.44,2.6 1.36,1.5599999999997 1.36,3.7999999999996 0,4 -2.72,6.3599999999999 -2.7200000000001,2.3600000000005 -7.4800000000001,2.3600000000005 -3.2400000000001,0 -5.92,-1.28 -2.6399999999999,-1.2800000000001 -4.6399999999999,-4.1600000000002 z"
       transform="scale(0.2645833333333333)" />
    <path
       inkscape:connector-curvature="0"
       id="path1398"
       style="font-style:normal;font-variant:normal;font-weight:normal;font-stretch:normal;font-size:40px;line-height:1.25;font-family:'Lexend Deca';-inkscape-font-specification:'Lexend Deca';text-align:center;letter-spacing:0px;word-spacing:0px;text-anchor:middle;fill:#4346ff;fill-opacity:1;stroke:none"
       d="m 343.1202490234375,600.9414672851562 v -23.84 h -7.84 v -4.16 h 20.2400000000002 v 4.16 h -8.08 v 23.84 z"
       transform="scale(0.2645833333333333)" />
    <path
       inkscape:connector-curvature="0"
       id="path1400"
       style="font-style:normal;font-variant:normal;font-weight:normal;font-stretch:normal;font-size:40px;line-height:1.25;font-family:'Lexend Deca';-inkscape-font-specification:'Lexend Deca';text-align:center;letter-spacing:0px;word-spacing:0px;text-anchor:middle;fill:#cd43ff;fill-opacity:1;stroke:none"
       d="m 360.8471240234375,572.9414672851562 h 17.64 v 4.16 h -13.32 v 7.3999999999996 h 11.12 v 4.1600000000002 h -11.12 v 8.12 h 13.32 v 4.1600000000002 h -17.64 z"
       transform="scale(0.2645833333333333)" />
    <path
       inkscape:connector-curvature="0"
       id="path1402"
       style="font-style:normal;font-variant:normal;font-weight:normal;font-stretch:normal;font-size:40px;line-height:1.25;font-family:'Lexend Deca';-inkscape-font-specification:'Lexend Deca';text-align:center;letter-spacing:0px;word-spacing:0px;text-anchor:middle;fill:#ff4343;fill-opacity:1;stroke:none"
       d="m 254.5264990234375,651.4482546154729 v -23.84 h -7.84 v -4.16 h 20.24 v 4.16 h -8.08 v 23.84 z"
       transform="scale(0.2645833333333333)" />
    <path
       inkscape:connector-curvature="0"
       id="path1404"
       style="font-style:normal;font-variant:normal;font-weight:normal;font-stretch:normal;font-size:40px;line-height:1.25;font-family:'Lexend Deca';-inkscape-font-specification:'Lexend Deca';text-align:center;letter-spacing:0px;word-spacing:0px;text-anchor:middle;fill:#ff4343;fill-opacity:1;stroke:none"
       d="m 270.4533740234375,657.8482546154729 v -3.12 h 23.36 v 3.12 z"
       transform="scale(0.2645833333333333)" />
    <path
       inkscape:connector-curvature="0"
       id="path1406"
       style="font-style:normal;font-variant:normal;font-weight:normal;font-stretch:normal;font-size:40px;line-height:1.25;font-family:'Lexend Deca';-inkscape-font-specification:'Lexend Deca';text-align:center;letter-spacing:0px;word-spacing:0px;text-anchor:middle;fill:#ff4343;fill-opacity:1;stroke:none"
       d="m 305.1514990234375,651.4482546154729 v -23.84 h -7.84 v -4.16 h 20.2400000000002 v 4.16 h -8.08 v 23.84 z"
       transform="scale(0.2645833333333333)" />
  </g>
</svg>
